# xmcd
#
# Track frame offsets: 
#        150
#        16265
#        35702
#        55217
#        72715
#        91530
#        105962
#        129872
#        151422
#        173180
#        192202
#        208935
#
# Disc length: 3090 seconds
#
# Revision: 0
# Processed by: cddbd v1.5.2PL0 Copyright (c) Steve Scherf et al.
# Submitted via: ExactAudioCopy v0.99pb5
#
DISCID=9b0c100c
DTITLE=Various Artist - Rain City Hymnal: Vol. 1
DYEAR=2008
DGENRE=Christian Rock
TTITLE0=Team Strike Force - All Creatures
TTITLE1=E-Pop - I'll Fly Away
TTITLE2=The Northern Conspiracy - Doxology
TTITLE3=Ex Nihilo - Here Is Love
TTITLE4=Team Strike Force - We Have Not Known Thee
TTITLE5=The Northern Conspiracy - Amazing Love
TTITLE6=Ex Nihilo - I Sing The Mighty Power Of God
TTITLE7=Team Strike Force - Softly And Tenderly
TTITLE8=E-Pop - The Solid Rock
TTITLE9=Ex Nihilo - What Wondrous Love Is This
TTITLE10=The BCG - Oh The Deep, Deep
TTITLE11=Ex Nihilo - Man Of Sorrows
EXTD=
EXTT0=
EXTT1=
EXTT2=
EXTT3=
EXTT4=
EXTT5=
EXTT6=
EXTT7=
EXTT8=
EXTT9=
EXTT10=
EXTT11=
PLAYORDER=
